<svg width="64" height="64" viewBox="0 0 100 100" fill="none" xmlns="http://www.w3.org/2000/svg">
  <!-- Outer Hexagon - Quantum Blue -->
  <path d="M50 5 L85.3 27.5 L85.3 72.5 L50 95 L14.7 72.5 L14.7 27.5 Z" stroke="#0066CC" stroke-width="4" fill="none"/>

  <!-- Inner Hexagon - Quantum Cyan -->
  <path d="M50 20 L73 32.5 L73 67.5 L50 80 L27 67.5 L27 32.5 Z" stroke="#00BCD4" stroke-width="2.5" fill="none" opacity="0.8"/>

  <!-- Center Atom - Quantum Red -->
  <circle cx="50" cy="50" r="10" fill="#E63946"/>

  <!-- Electron Orbits - Blue -->
  <ellipse cx="50" cy="50" rx="35" ry="15" stroke="#0066CC" stroke-width="2" fill="none" opacity="0.6"/>
  <ellipse cx="50" cy="50" rx="35" ry="15" stroke="#0066CC" stroke-width="2" fill="none" opacity="0.6" transform="rotate(60 50 50)"/>
  <ellipse cx="50" cy="50" rx="35" ry="15" stroke="#0066CC" stroke-width="2" fill="none" opacity="0.6" transform="rotate(120 50 50)"/>

  <!-- Electrons - Cyan dots -->
  <circle cx="85" cy="50" r="4" fill="#00BCD4"/>
  <circle cx="15" cy="50" r="4" fill="#00BCD4"/>
  <circle cx="67.5" cy="75" r="4" fill="#00BCD4"/>
  <circle cx="32.5" cy="25" r="4" fill="#00BCD4"/>
  <circle cx="67.5" cy="25" r="4" fill="#00BCD4"/>
  <circle cx="32.5" cy="75" r="4" fill="#00BCD4"/>
</svg>
